# xmcd
#
# Track frame offsets:
#	150
#	14367
#	28057
#	39365
#	53652
#	73987
#	87005
#	98757
#	111742
#	132562
#	145905
#	159042
#	171187
#	184080
#	198152
#	211785
#	231160
#
# Disc length: 3401
#
# Revision: 2
# Processed by: cddbd v1.5.1PL0 Copyright (c) Steve Scherf et al.
# Submitted via: CDex 1.50Beta7
# Normalized: r0:TRMNUM;r1:DSETVAR1,TDELIM( - )
#
DISCID=e70d4711
DTITLE=Various Artist - Jazz Vocal Essentials Vol. 1
DYEAR=1900
DGENRE=Jazz
TTITLE0=Louis Armstrong - A Kiss to Build a Dream On
TTITLE1=Jimmy Rushing - Pennies from Heaven
TTITLE2=Leo Watson - Utt Da Zay (The Tailor Song)
TTITLE3=Ethel Waters - I Can't Give You Anything but Love
TTITLE4=Bing Crosby - St. Louis Blues
TTITLE5=Maxine Sullivan - Loch Lomond
TTITLE6=Mildred Bailey - Rockin' Chair
TTITLE7=Nat King Cole - Sweet Lorraine
TTITLE8=Lee Wiley - Sugar (That Sugar Baby o' Mine)
TTITLE9=Billie Holiday - I Loves You Porgy
TTITLE10=Billy Eckstine - Body and Soul
TTITLE11=Helen Humes - Rock Me to Sleep
TTITLE12=Al Hibbler - On a Slow Boat to China
TTITLE13=Peggy Lee - Black Coffee
TTITLE14=King Pleasure - Moody's Mood for Love
TTITLE15=June Christy - Something Cool
TTITLE16=Dinah Washington - I've Got You under My Skin
EXTD=
EXTT0=
EXTT1=
EXTT2=
EXTT3=
EXTT4=
EXTT5=
EXTT6=
EXTT7=
EXTT8=
EXTT9=
EXTT10=
EXTT11=
EXTT12=
EXTT13=
EXTT14=
EXTT15=
EXTT16=
PLAYORDER=
